# xmcd
#
# Track frame offsets: 
#        182
#        14430
#        28890
#        41867
#        54297
#        65410
#        85240
#        102657
#        115120
#        132510
#        153797
#        164920
#
# Disc length: 2412 seconds
#
# Revision: 2
# Processed by: cddbd v1.5.2PL0 Copyright (c) Steve Scherf et al.
# Submitted via: ExactAudioCopy v0.99pb3
#
DISCID=a6096a0c
DTITLE=Varios - Memorias Sertanejas Vol 18
DYEAR=1996
DGENRE=
TTITLE0=Tonico e Tinoco - A Saudade Vai
TTITLE1=Tiao Carreiro e Carreirinho - Urutu Cruzeiro
TTITLE2=Tonico e Tinoco - A Marca da Ferradura
TTITLE3=Jaco e Jacozinho - Disco Voador
TTITLE4=Craveiro e Cravinho - Ladrao de Estrada
TTITLE5=Milionario  e Jose Rico - Sonhei com Voce
TTITLE6=Sulino e Marrueiro - Festa no Ceu
TTITLE7=Lourenco e Lourival - Duelo de Amor
TTITLE8=Cacique e Paje - Pescador e Catireiro
TTITLE9=Praiao e Prainha - Igrejinha da Serra
TTITLE10=Pedro Bento e Ze da Estrada - Hei Barretos
TTITLE11=Silveira e Silveirinha - Hoje Ta Fazendo um Ano
EXTD=
EXTT0=
EXTT1=
EXTT2=
EXTT3=
EXTT4=
EXTT5=
EXTT6=
EXTT7=
EXTT8=
EXTT9=
EXTT10=
EXTT11=
PLAYORDER=
